<svg width="73" height="73" viewBox="0 0 73 73" fill="none" xmlns="http://www.w3.org/2000/svg">
<path d="M53.6371 50.0121C50.0492 53.5999 41.4622 62.1869 38.0749 65.5743C37.2938 66.3553 36.0385 66.3546 35.2575 65.5736C31.922 62.2381 23.5356 53.8517 19.6959 50.0121C10.3234 40.6395 10.3234 25.4435 19.6959 16.0709C29.0685 6.69836 44.2645 6.69836 53.6371 16.0709C63.0096 25.4435 63.0096 40.6395 53.6371 50.0121Z" stroke="#B45309" stroke-width="2" stroke-linecap="round" stroke-linejoin="round"/>
<path d="M45.6665 33.0415C45.6665 38.0121 41.6371 42.0415 36.6665 42.0415C31.6959 42.0415 27.6665 38.0121 27.6665 33.0415C27.6665 28.0709 31.6959 24.0415 36.6665 24.0415C41.6371 24.0415 45.6665 28.0709 45.6665 33.0415Z" stroke="#B45309" stroke-width="2" stroke-linecap="round" stroke-linejoin="round"/>
</svg>
