<svg width="72" height="73" viewBox="0 0 72 73" fill="none" xmlns="http://www.w3.org/2000/svg">
<path d="M9 15.0415C9 11.7278 11.6863 9.0415 15 9.0415H24.8377C26.129 9.0415 27.2754 9.86779 27.6838 11.0928L32.1772 24.5731C32.6493 25.9895 32.0081 27.5374 30.6728 28.2051L23.901 31.591C27.2077 38.9252 33.1163 44.8338 40.4505 48.1405L43.8364 41.3687C44.5041 40.0334 46.052 39.3922 47.4684 39.8643L60.9487 44.3577C62.1737 44.7661 63 45.9125 63 47.2038V57.0415C63 60.3552 60.3137 63.0415 57 63.0415H54C29.1472 63.0415 9 42.8943 9 18.0415V15.0415Z" stroke="#B45309" stroke-width="2" stroke-linecap="round" stroke-linejoin="round"/>
</svg>
